<svg id="Layer_1" data-name="Layer 1" xmlns="http://www.w3.org/2000/svg" viewBox="0 0 14.97 14.97" fill='#fff' stroke='none'><path d="M15,10.2V4.85c0-.13,0-.27,0-.43a5.61,5.61,0,0,0-.19-1.31A4.3,4.3,0,0,0,12.4.41,5.48,5.48,0,0,0,10.58.06c-.8,0-1.05,0-3.09,0S5.2,0,4.4.06A5.19,5.19,0,0,0,2.58.41a3.42,3.42,0,0,0-.43.21A4.28,4.28,0,0,0,.63,2.12a3.07,3.07,0,0,0-.24.48A5.48,5.48,0,0,0,0,4.42c0,.8,0,1,0,3.09S0,9.81,0,10.6a5.48,5.48,0,0,0,.35,1.82c0,.05,0,.09.07.13a4.27,4.27,0,0,0,2.16,2.07l.22.08.16.05A6.71,6.71,0,0,0,4.4,15l.49,0h5.16l.53,0a6.28,6.28,0,0,0,1.23-.17,4.34,4.34,0,0,0,3-3,6.35,6.35,0,0,0,.16-1.21C15,10.45,15,10.33,15,10.2ZM7.49,11.26c-5,0-5-7.5,0-7.5S12.49,11.26,7.49,11.26Zm3-7.69a.94.94,0,0,1,1.88,0A.94.94,0,0,1,10.49,3.57Z" transform="translate(0.01 -0.01)"/><path d="M7.48,5.25a2.25,2.25,0,0,0,0,4.5A2.25,2.25,0,0,0,7.48,5.25Z" transform="translate(0.01 -0.01)"/></svg>