<svg id="Layer_1" data-name="Layer 1" xmlns="http://www.w3.org/2000/svg" viewBox="0 0 14.97 14.97" fill='#fff' stroke='none'><path d="M7.24,7.8h0a.32.32,0,0,0-.08-.2L6.51,5.84a.42.42,0,0,0-.39-.29.44.44,0,0,0-.41.28l-1,2.54a.3.3,0,0,0,.55.23l.2-.51h1.3l.18.5a.29.29,0,0,0,.38.18.3.3,0,0,0,.18-.39l-.22-.57ZM5.66,7.5,6.1,6.43,6.5,7.5Z"/><path d="M5.17,5.88h0a.3.3,0,0,0-.3-.3h-2a.3.3,0,1,0,0,.59h.72V8.51a.3.3,0,0,0,.59,0V6.18h.71A.3.3,0,0,0,5.17,5.88Z"/><path d="M9.33,8.18H8.41V5.88a.29.29,0,0,0-.58,0v2.6a.29.29,0,0,0,.29.29H9.33A.3.3,0,0,0,9.33,8.18Z"/><path d="M10.62,0H4.35A4.35,4.35,0,0,0,0,4.35v6.27A4.35,4.35,0,0,0,4.35,15h6.27A4.35,4.35,0,0,0,15,10.62V4.35A4.35,4.35,0,0,0,10.62,0ZM7.48,12.17A7.83,7.83,0,0,1,6.4,12.1L3.65,13.9c-.31.17-.42.15-.3-.25l.56-2.3a5,5,0,0,1-3-4.29c0-2.83,2.94-5.12,6.56-5.12S14,4.23,14,7.06,11.11,12.17,7.48,12.17Z"/><path d="M12.09,6.09a.29.29,0,0,0-.41-.42l-1.2,1.16v-1a.3.3,0,1,0-.59,0V7.46a.33.33,0,0,0,0,.14v.9a.3.3,0,1,0,.59,0V7.65l.26-.26.9,1.27a.29.29,0,1,0,.48-.34L11.17,7h0Z"/></svg>