<svg id="Layer_1" data-name="Layer 1" xmlns="http://www.w3.org/2000/svg" viewBox="0 0 14.97 14.97" fill='#fff' stroke='none'><polygon points="6.18 9.76 10.09 7.48 6.18 5.21 6.18 9.76"/><path d="M10.62,0H4.35A4.35,4.35,0,0,0,0,4.35v6.27A4.35,4.35,0,0,0,4.35,15h6.27A4.35,4.35,0,0,0,15,10.62V4.35A4.35,4.35,0,0,0,10.62,0Zm3.07,11.06a1.83,1.83,0,0,1-1.26,1.31,32.19,32.19,0,0,1-4.95.32,33.1,33.1,0,0,1-4.94-.31,1.85,1.85,0,0,1-1.26-1.32A20,20,0,0,1,1,7.48a20,20,0,0,1,.3-3.57A1.83,1.83,0,0,1,2.54,2.59a33.1,33.1,0,0,1,4.94-.31,33.22,33.22,0,0,1,4.95.31A1.83,1.83,0,0,1,13.69,3.9h0A20,20,0,0,1,14,7.48,20,20,0,0,1,13.69,11.06Z"/></svg>